Coordinates
version=1
nRows=9
nColumns=24
inDegrees=yes

Units are S.I. units (second, meters, Newtons, ...)
Angles are in degrees.

endheader
time	pelvis_tilt	pelvis_list	pelvis_rotation	pelvis_tx	pelvis_ty	pelvis_tz	hip_flexion_r	hip_adduction_r	hip_rotation_r	knee_angle_r	ankle_angle_r	subtalar_angle_r	mtp_angle_r	hip_flexion_l	hip_adduction_l	hip_rotation_l	knee_angle_l	ankle_angle_l	subtalar_angle_l	mtp_angle_l	lumbar_extension	lumbar_bending	lumbar_rotation
      0.76650000	     -1.66010326	     -2.20959417	      3.42163249	     -0.52006477	      0.99730660	      0.32107622	     12.00923379	      5.53701576	     -8.23170533	    -15.02745955	      6.36990872	     -7.19648655	      4.24451392	     19.16603154	     -1.53599483	      0.72335501	    -68.50717920	     -6.75087532	     -7.83695765	      2.50230085	      0.49906013	      5.39318255	      1.95806037
      0.77066667	     -1.60659031	     -2.16595445	      3.40978739	     -0.51504001	      0.99797970	      0.32126969	     11.43342940	      5.54286736	     -8.24429204	    -14.65544786	      6.46820500	     -7.06159343	      4.24375162	     19.71170816	     -1.41660277	      0.82120362	    -68.39029819	     -6.07901632	     -8.10490929	      2.44829428	      0.39319791	      5.34571833	      2.03858617
      0.77483333	     -1.53382162	     -2.12459319	      3.39751674	     -0.50999480	      0.99866893	      0.32146583	     10.82041817	      5.55524442	     -8.24556414	    -14.24757326	      6.55306159	     -6.89097131	      4.24010488	     20.21605705	     -1.30168945	      0.92240543	    -68.20590181	     -5.43724271	     -8.33701078	      2.34642965	      0.26432455	      5.30952085	      2.15730404
      0.77900000	     -1.49486708	     -2.07916574	      3.36026818	     -0.50498688	      0.99925311	      0.32169494	     10.27131978	      5.56070846	     -8.24147482	    -13.89620808	      6.65644310	     -6.77986154	      4.23876657	     20.74833592	     -1.19152129	      0.98900079	    -67.98178315	     -4.79871572	     -8.64612858	      2.28874783	      0.17231170	      5.25150392	      2.23311417
      0.78316667	     -1.45788581	     -2.03092741	      3.32121805	     -0.49998878	      0.99980785	      0.32193186	      9.71781627	      5.56580538	     -8.21579078	    -13.52883798	      6.75137140	     -6.65345952	      4.23715712	     21.26701168	     -1.08204433	      1.05287429	    -67.69806044	     -4.19097399	     -8.92537123	      2.22628224	      0.08011222	      5.19670215	      2.33112146
      0.78733333	     -1.42586691	     -1.96938164	      3.26640197	     -0.49499221	      1.00031984	      0.32216551	      9.17483561	      5.55384174	     -8.18684332	    -13.17394541	      6.85197147	     -6.53056370	      4.23603288	     21.77033225	     -0.95776499	      1.10565832	    -67.35854460	     -3.59569306	     -9.21169778	      2.16997907	     -0.00305753	      5.14192232	      2.43209196
      0.79150000	     -1.35651482	     -1.90079640	      3.21431432	     -0.48997993	      1.00087912	      0.32241494	      8.57579257	      5.53910767	     -8.15336831	    -12.78494799	      6.93725935	     -6.35792435	      4.23092648	     22.21084135	     -0.83572710	      1.15210183	    -66.95041136	     -3.06215703	     -9.46720854	      2.04528122	     -0.13747111	      5.06017252	      2.61059602
      0.79566667	     -1.31703645	     -1.83865477	      3.14396425	     -0.48499981	      1.00133701	      0.32268090	      8.02868858	      5.52833766	     -8.10802064	    -12.43375544	      7.03460603	     -6.21353788	      4.22548195	     22.67401020	     -0.72757273	      1.18041431	    -66.50436432	     -2.51908359	     -9.73576535	      1.91268863	     -0.23637316	      4.99251870	      2.74760744
      0.79983333	     -1.32896079	     -1.77093422	      3.05521898	     -0.48006143	      1.00168162	      0.32296161	      7.55877319	      5.50624978	     -8.04703013	    -12.12411863	      7.13678146	     -6.10378394	      4.22449261	     23.18048412	     -0.61589696	      1.19319992	    -66.01438831	     -1.98478572	    -10.00675508	      1.84837900	     -0.28079966	      4.91647493	      2.83080837
